<svg xmlns="http://www.w3.org/2000/svg" viewBox="0 0 90 90">
  <path fill="#FFF" fill-rule="evenodd" d="M61.53625,59.39625 L59.39625,61.53625 C58.80625,62.12725 57.84825,62.12725 57.25725,61.53625 L44.98925,49.26825 L32.72225,61.53625 C32.13125,62.12725 31.17325,62.12725 30.58225,61.53625 L28.44325,59.39625 C27.85225,58.80625 27.85225,57.84825 28.44325,57.25725 L40.71025,44.98925 L29.44325,33.72225 C28.85225,33.13125 28.85225,32.17325 29.44325,31.58225 L31.58225,29.44325 C32.17325,28.85225 33.13125,28.85225 33.72225,29.44325 L44.98925,40.71025 L56.25725,29.44325 C56.84825,28.85225 57.80625,28.85225 58.39725,29.44325 L60.53625,31.58225 C61.12725,32.17325 61.12725,33.13125 60.53625,33.72225 L49.26825,44.98925 L61.53625,57.25725 C62.12725,57.84825 62.12725,58.80625 61.53625,59.39625 Z"/>
</svg>
