<svg xmlns="http://www.w3.org/2000/svg" viewBox="0 0 90 90">
  <path fill="#FFF" fill-rule="evenodd" d="M64.5,62 L25.5,62 C24.672,62 24,61.328 24,60.5 L24,57.5 C24,56.672 24.672,56 25.5,56 L64.5,56 C65.328,56 66,56.672 66,57.5 L66,60.5 C66,61.328 65.328,62 64.5,62 Z M64.5,48 L25.5,48 C24.672,48 24,47.328 24,46.5 L24,43.5 C24,42.672 24.672,42 25.5,42 L64.5,42 C65.328,42 66,42.672 66,43.5 L66,46.5 C66,47.328 65.328,48 64.5,48 Z M64.5,34 L25.5,34 C24.672,34 24,33.328 24,32.5 L24,29.5 C24,28.672 24.672,28 25.5,28 L64.5,28 C65.328,28 66,28.672 66,29.5 L66,32.5 C66,33.328 65.328,34 64.5,34 Z"/>
</svg>
