<svg xmlns="http://www.w3.org/2000/svg" viewBox="0 0 388 181">
  <g fill="none" fill-rule="evenodd">
    <path fill="#EABB75" fill-rule="nonzero" d="M90.5,1 C41.0701424,1 1,41.0701424 1,90.5 C1,139.929858 41.0701424,180 90.5,180 C139.929858,180 180,139.929858 180,90.5 C180,41.0701424 139.929858,1 90.5,1 Z M90.5,0 C140.482142,0 181,40.5178576 181,90.5 C181,140.482142 140.482142,181 90.5,181 C40.5178576,181 0,140.482142 0,90.5 C0,40.5178576 40.5178576,0 90.5,0 Z"/>
    <path fill="#D3BD88" d="M149.03,64.246 C148.004,69.461 145.49,74.298 141.487,78.758 C137.485,83.219 132.644,86.991 126.966,90.079 C130.455,91.041 133.088,92.515 134.868,94.505 C136.647,96.426 137.947,98.485 138.768,100.68 C139.861,103.356 140.307,105.586 140.102,107.37 C139.828,110.802 137.245,115.107 132.354,120.286 C127.462,125.466 121.492,129.961 114.446,133.769 C107.399,137.577 100.625,139.481 94.126,139.481 C92.141,139.481 90.158,139.276 88.174,138.864 C84.752,138.108 82.325,136.754 80.888,134.798 C79.451,132.843 78.733,130.801 78.733,128.675 C78.733,127.988 78.802,127.388 78.938,126.874 C79.076,126.359 79.246,126.015 79.451,125.844 C79.656,125.672 79.793,125.757 79.862,126.102 C81.024,129.532 84.034,131.248 88.893,131.248 C93.886,131.248 99.925,129.601 107.006,126.307 C114.087,123.014 120.414,119.018 125.991,114.317 C131.567,109.618 134.833,105.278 135.792,101.298 C133.601,99.514 130.677,98.21 127.017,97.387 C123.357,96.563 119.303,96.151 114.856,96.151 C113.761,96.151 112.05,96.221 109.725,96.357 C109.11,96.496 108.253,96.632 107.16,96.769 C102.165,105.209 99.668,112.276 99.668,117.971 C99.668,119.55 99.804,120.888 100.079,121.985 C100.284,122.671 100.181,123.014 99.771,123.014 C99.36,123.014 98.83,122.551 98.18,121.625 C97.529,120.698 96.982,119.309 96.538,117.456 C96.092,115.604 95.871,113.375 95.871,110.766 C95.871,110.081 95.938,108.846 96.076,107.061 C96.282,104.454 97.478,100.68 99.668,95.74 C99.189,94.505 98.95,93.099 98.95,91.52 C98.95,90.079 99.155,89.359 99.566,89.359 C100.933,89.497 102.028,89.531 102.849,89.461 C104.969,85.55 107.347,81.588 109.982,77.574 C112.615,73.56 114.975,70.164 117.063,67.385 C119.149,64.606 120.398,63.114 120.809,62.908 C121.15,62.702 121.902,62.977 123.066,63.731 C124.229,64.487 125.273,65.378 126.196,66.407 C127.12,67.436 127.547,68.295 127.479,68.98 C127.41,69.324 126.864,70.199 125.837,71.605 C124.811,73.012 123.58,74.573 122.143,76.288 C121.458,77.111 120.26,78.587 118.551,80.713 C116.84,82.841 115.267,84.899 113.83,86.888 C118.482,85.105 123.1,82.601 127.684,79.375 C132.267,76.151 136.167,72.652 139.384,68.877 C142.599,65.105 144.651,61.57 145.541,58.276 C143.966,56.356 141.847,54.931 139.178,54.005 C136.51,53.079 133.465,52.616 130.045,52.616 C124.365,52.616 118.174,53.748 111.47,56.012 C104.764,58.276 98.676,61.279 93.203,65.018 C92.493,65.503 91.812,65.991 91.155,66.483 C90.616,67.735 90.037,69.074 89.406,70.524 C88.278,73.143 87.187,75.701 86.115,78.227 C86.193,78.563 86.155,79.099 85.968,79.89 C85.66,81.194 85.112,82.447 84.326,83.646 C84.002,84.141 83.675,84.507 83.345,84.798 C78.383,96.654 74.068,107.431 70.42,117.096 C65.356,130.509 62.826,140.202 62.826,146.171 C62.826,146.583 62.877,147.046 62.98,147.561 C63.083,148.075 63.134,148.503 63.134,148.847 C63.134,149.396 62.826,149.671 62.21,149.671 C61.457,149.671 60.499,149.275 59.337,148.487 C58.173,147.697 57.182,146.617 56.361,145.245 C55.54,143.872 55.129,142.363 55.129,140.716 C55.129,134.815 59.815,120.168 69.189,96.769 C62.483,107.817 57.831,115.433 55.232,119.617 C54.616,120.51 53.898,120.955 53.077,120.955 C52.118,120.955 51.092,120.441 49.998,119.412 C48.903,118.383 47.979,117.25 47.227,116.015 C45.653,114.163 44.867,112.071 44.867,109.737 C44.867,104.112 47.261,95.843 52.05,84.933 C56.839,74.023 62.483,62.154 68.984,49.322 C64.468,50.969 59.609,54.074 54.411,58.637 C49.211,63.2 44.524,68.072 40.351,73.251 C36.177,78.433 33.44,82.566 32.141,85.653 C32.619,86.065 33.253,86.512 34.04,86.991 C34.826,87.472 35.459,87.884 35.939,88.226 C36.485,88.501 36.434,88.828 35.785,89.204 C35.134,89.582 34.33,89.77 33.373,89.77 C32.757,89.77 32.209,89.667 31.731,89.461 C31.388,89.325 30.977,89.016 30.499,88.535 C29.815,88.262 29.079,87.181 28.293,85.293 C27.506,83.407 27.044,81.606 26.908,79.89 C26.771,77.97 29.387,73.681 34.758,67.025 C40.129,60.37 46.15,54.314 52.82,48.859 C59.491,43.404 65.015,40.677 69.394,40.677 C70.077,40.677 70.59,40.712 70.933,40.78 C71.822,40.918 72.848,41.484 74.012,42.478 C75.175,43.473 76.167,44.536 76.988,45.668 C77.809,46.801 78.22,47.642 78.22,48.19 C78.287,48.328 78.322,48.534 78.322,48.808 C78.253,49.563 76.44,53.439 72.883,60.438 C67.819,70.524 63.56,79.393 60.107,87.043 C56.651,94.694 54.17,101.503 52.666,107.473 C56.839,102.465 61.474,96.066 66.572,88.278 C70.402,82.425 73.962,76.677 77.253,71.036 C77.947,69.198 78.909,67.28 80.17,65.275 C80.609,64.572 81.132,63.874 81.701,63.178 C85.146,56.914 87.548,52.117 88.893,48.808 C89.098,48.465 89.406,48.293 89.816,48.293 C90.499,48.293 91.32,48.671 92.279,49.425 C93.236,50.112 94.091,50.969 94.845,51.998 C95.063,52.297 95.236,52.58 95.385,52.856 C99.775,50.515 104.532,48.542 109.674,46.955 C116.345,44.897 122.587,43.867 128.403,43.867 C134.697,43.867 139.589,45.138 143.078,47.675 C144.787,48.843 146.088,50.541 146.978,52.77 C147.866,55.001 148.415,57.213 148.62,59.408 C148.961,60.782 149.133,61.914 149.133,62.805 C149.133,63.492 149.098,63.972 149.03,64.246 Z"/>
    <path fill="#FFF" d="M380.221 109.529L379.562 105.81 379.515 105.81C378.746 107.301 377.816 108.411 376.726 109.14 375.635 109.87 374.314 110.235 372.76 110.235 370.846 110.235 369.379 109.662 368.359 108.517 367.339 107.372 366.83 106.007 366.83 104.422 366.83 103.653 366.951 102.912 367.194 102.198 367.437 101.484 367.834 100.797 368.383 100.138 368.932 99.479 369.607 98.907 370.407 98.42 371.207 97.934 372.199 97.546 373.384 97.255 374.568 96.965 375.882 96.82 377.326 96.82 378.095 96.82 378.824 96.852 379.515 96.914L379.515 93.659C379.515 92.622 379.495 91.78 379.456 91.136 379.417 90.491 379.318 89.827 379.162 89.143 379.005 88.459 378.781 87.932 378.491 87.562 378.201 87.192 377.793 86.886 377.267 86.642 376.741 86.399 376.102 86.276 375.349 86.276 373.058 86.276 371.387 87.181 370.336 88.99L370.336 89.085C370.603 89.038 370.846 89.014 371.066 89.014 371.882 89.014 372.525 89.266 372.996 89.769 373.466 90.273 373.702 90.997 373.702 91.94 373.702 92.758 373.419 93.447 372.855 94.005 372.29 94.564 371.584 94.843 370.736 94.843 369.81 94.843 369.081 94.529 368.548 93.902 368.014 93.274 367.748 92.537 367.748 91.689 367.748 89.838 368.598 88.293 370.301 87.053 372.003 85.814 373.961 85.194 376.173 85.194 377.742 85.194 379.079 85.359 380.186 85.688 381.292 86.018 382.174 86.453 382.833 86.994 383.492 87.536 384.006 88.273 384.375 89.207 384.743 90.14 384.987 91.093 385.104 92.066 385.222 93.039 385.281 94.231 385.281 95.643L385.281 108.328 387.705 108.564 387.705 109.529 380.221 109.529zM379.515 98.02C378.887 97.942 378.377 97.903 377.985 97.903 377.169 97.903 376.444 98.012 375.808 98.231 375.173 98.45 374.667 98.748 374.29 99.124 373.914 99.5 373.6 99.895 373.349 100.309 373.098 100.724 372.917 101.182 372.807 101.683 372.698 102.184 372.623 102.599 372.584 102.928 372.545 103.256 372.525 103.593 372.525 103.937 372.525 105.19 372.76 106.203 373.231 106.978 373.702 107.753 374.392 108.14 375.302 108.14 376.369 108.14 377.338 107.475 378.209 106.144 379.079 104.814 379.515 103.186 379.515 101.26L379.515 98.02zM356.332 113.577C355.783 115.177 355.218 116.51 354.638 117.578 354.057 118.644 353.473 119.425 352.884 119.919 352.296 120.413 351.751 120.747 351.249 120.919 350.747 121.092 350.19 121.178 349.578 121.178 348.401 121.178 347.448 120.849 346.718 120.19 345.989 119.531 345.624 118.699 345.624 117.695 345.624 116.769 345.902 115.993 346.46 115.365 347.016 114.738 347.719 114.424 348.566 114.424 349.476 114.424 350.162 114.706 350.625 115.271 351.088 115.836 351.319 116.534 351.319 117.366 351.319 117.679 351.221 118.056 351.025 118.495 350.829 118.934 350.574 119.264 350.26 119.484L350.26 119.578C350.809 119.562 351.327 119.37 351.814 119.001 352.3 118.633 352.739 118.103 353.132 117.413 353.524 116.722 353.822 116.142 354.026 115.671 354.23 115.201 354.465 114.612 354.732 113.906L355.791 110.329 345.789 87.124 343.459 86.865 343.459 85.9 354.591 85.9 354.591 86.865 352.049 87.124 358.168 102.468 362.781 87.124 360.192 86.865 360.192 85.9 366.593 85.9 366.593 86.865 364.146 87.124 356.332 113.577zM344.376 109.529L336.892 109.529 336.233 105.81 336.186 105.81C335.417 107.301 334.487 108.411 333.397 109.14 332.306 109.87 330.985 110.235 329.431 110.235 327.517 110.235 326.05 109.662 325.03 108.517 324.01 107.372 323.501 106.007 323.501 104.422 323.501 103.653 323.622 102.912 323.865 102.198 324.108 101.484 324.504 100.797 325.054 100.138 325.603 99.479 326.278 98.907 327.078 98.42 327.878 97.934 328.87 97.546 330.055 97.255 331.239 96.965 332.553 96.82 333.997 96.82 334.766 96.82 335.495 96.852 336.186 96.914L336.186 93.659C336.186 92.622 336.166 91.78 336.127 91.136 336.088 90.491 335.989 89.827 335.833 89.143 335.676 88.459 335.452 87.932 335.162 87.562 334.871 87.192 334.464 86.886 333.938 86.642 333.412 86.399 332.773 86.276 332.02 86.276 329.729 86.276 328.058 87.181 327.007 88.99L327.007 89.085C327.274 89.038 327.517 89.014 327.737 89.014 328.552 89.014 329.196 89.266 329.667 89.769 330.137 90.273 330.373 90.997 330.373 91.94 330.373 92.758 330.09 93.447 329.525 94.005 328.961 94.564 328.255 94.843 327.407 94.843 326.481 94.843 325.752 94.529 325.219 93.902 324.685 93.274 324.418 92.537 324.418 91.689 324.418 89.838 325.269 88.293 326.972 87.053 328.674 85.814 330.632 85.194 332.844 85.194 334.413 85.194 335.75 85.359 336.856 85.688 337.963 86.018 338.845 86.453 339.504 86.994 340.163 87.536 340.677 88.273 341.046 89.207 341.414 90.14 341.658 91.093 341.775 92.066 341.893 93.039 341.952 94.231 341.952 95.643L341.952 108.328 344.376 108.564 344.376 109.529zM336.186 98.02C335.558 97.942 335.048 97.903 334.656 97.903 333.84 97.903 333.114 98.012 332.479 98.231 331.844 98.45 331.338 98.748 330.961 99.124 330.584 99.5 330.27 99.895 330.02 100.309 329.769 100.724 329.588 101.182 329.478 101.683 329.368 102.184 329.294 102.599 329.255 102.928 329.215 103.256 329.196 103.593 329.196 103.937 329.196 105.19 329.431 106.203 329.902 106.978 330.373 107.753 331.063 108.14 331.973 108.14 333.04 108.14 334.009 107.475 334.88 106.144 335.75 104.814 336.186 103.186 336.186 101.26L336.186 98.02zM311.003 108.564L313.403 108.328 313.403 92.325C313.403 88.983 312.328 87.312 310.179 87.312 308.767 87.312 307.61 87.955 306.708 89.242 305.805 90.528 305.354 92.215 305.354 94.302L305.354 108.328 307.778 108.564 307.778 109.529 297.164 109.529 297.164 108.564 299.588 108.328 299.588 87.736 296.741 87.783 296.694 86.818 301.612 86.3 304.931 85.429 305.354 86.112 305.26 89.289 305.354 89.289C307.221 86.559 309.638 85.194 312.603 85.194 313.168 85.194 313.709 85.241 314.227 85.335 314.745 85.429 315.317 85.641 315.945 85.97 316.572 86.3 317.114 86.732 317.569 87.265 318.024 87.798 318.408 88.559 318.722 89.548 319.036 90.536 319.193 91.689 319.193 93.007L319.193 108.328 321.593 108.564 321.593 109.529 311.003 109.529 311.003 108.564zM292.351 108.258C291.542 108.87 290.515 109.344 289.268 109.682 288.02 110.019 286.541 110.188 284.831 110.188 284.015 110.188 283.145 110.085 282.219 109.882 281.293 109.678 280.438 109.352 279.654 108.905 278.869 108.458 278.218 107.878 277.7 107.163 277.183 106.45 276.924 105.575 276.924 104.539 276.924 104.1 276.994 103.677 277.135 103.268 277.277 102.861 277.477 102.496 277.736 102.174 277.994 101.853 278.312 101.598 278.689 101.409 279.065 101.221 279.497 101.127 279.983 101.127 280.407 101.127 280.783 101.201 281.113 101.35 281.442 101.5 281.721 101.696 281.948 101.939 282.176 102.182 282.352 102.468 282.478 102.798 282.603 103.127 282.674 103.48 282.69 103.857 282.69 104.296 282.611 104.685 282.454 105.022 282.297 105.359 282.093 105.638 281.842 105.857 281.591 106.077 281.305 106.246 280.983 106.363 280.662 106.481 280.344 106.54 280.03 106.54 279.967 106.54 279.901 106.54 279.83 106.54 279.76 106.54 279.693 106.532 279.63 106.516L279.63 106.564C279.771 106.88 279.983 107.189 280.266 107.49 280.548 107.791 280.905 108.06 281.336 108.298 281.768 108.535 282.27 108.729 282.843 108.88 283.415 109.03 284.047 109.105 284.737 109.105 286.526 109.105 287.847 108.775 288.703 108.114 289.558 107.453 289.985 106.627 289.985 105.636 289.985 105.117 289.903 104.657 289.738 104.255 289.574 103.854 289.307 103.469 288.938 103.099 288.569 102.729 288.083 102.351 287.479 101.966 286.875 101.581 286.126 101.144 285.231 100.656 284.447 100.201 283.615 99.726 282.737 99.232 281.858 98.738 281.046 98.165 280.301 97.514 279.555 96.863 278.936 96.106 278.442 95.243 277.947 94.38 277.7 93.345 277.7 92.137 277.7 91.07 277.904 90.105 278.312 89.242 278.72 88.379 279.289 87.646 280.018 87.041 280.748 86.438 281.619 85.97 282.631 85.641 283.643 85.312 284.753 85.147 285.961 85.147 286.871 85.147 287.785 85.261 288.703 85.488 289.621 85.716 290.448 86.057 291.186 86.512 291.923 86.967 292.519 87.532 292.974 88.206 293.429 88.881 293.657 89.665 293.657 90.56 293.657 90.905 293.598 91.242 293.48 91.572 293.363 91.901 293.186 92.199 292.951 92.466 292.715 92.733 292.429 92.948 292.092 93.113 291.754 93.278 291.366 93.36 290.927 93.36 290.017 93.36 289.334 93.11 288.879 92.607 288.424 92.105 288.197 91.493 288.197 90.772 288.197 90.317 288.259 89.928 288.385 89.607 288.51 89.285 288.679 89.018 288.891 88.806 289.103 88.595 289.346 88.438 289.621 88.336 289.895 88.234 290.174 88.183 290.456 88.183L290.668 88.183 290.668 88.136C290.511 87.889 290.283 87.652 289.985 87.427 289.687 87.202 289.334 87.001 288.926 86.823 288.518 86.644 288.063 86.501 287.561 86.392 287.059 86.284 286.526 86.229 285.961 86.229 285.129 86.229 284.423 86.339 283.843 86.558 283.262 86.777 282.787 87.055 282.419 87.391 282.05 87.728 281.78 88.099 281.607 88.506 281.434 88.912 281.348 89.304 281.348 89.679 281.348 90.133 281.419 90.524 281.56 90.852 281.701 91.181 281.948 91.514 282.301 91.85 282.654 92.186 283.141 92.55 283.76 92.941 284.38 93.332 285.161 93.801 286.102 94.349 287.012 94.82 287.973 95.322 288.985 95.855 289.997 96.389 290.927 97.005 291.774 97.702 292.621 98.401 293.323 99.201 293.88 100.103 294.437 101.005 294.716 102.06 294.716 103.268 294.716 104.289 294.524 105.222 294.139 106.069 293.755 106.916 293.159 107.646 292.351 108.258zM266.615 105.81L266.567 105.81C265.799 107.301 264.869 108.411 263.779 109.14 262.688 109.87 261.366 110.235 259.813 110.235 257.899 110.235 256.432 109.662 255.412 108.517 254.392 107.372 253.882 106.007 253.882 104.422 253.882 103.653 254.004 102.912 254.247 102.198 254.49 101.484 254.886 100.797 255.436 100.138 255.985 99.479 256.659 98.907 257.46 98.42 258.26 97.934 259.252 97.546 260.437 97.255 261.621 96.965 262.935 96.82 264.379 96.82 265.147 96.82 265.877 96.852 266.567 96.914L266.567 93.659C266.567 92.622 266.548 91.78 266.509 91.136 266.469 90.491 266.371 89.827 266.214 89.143 266.057 88.459 265.834 87.932 265.544 87.562 265.253 87.192 264.845 86.886 264.32 86.642 263.794 86.399 263.155 86.276 262.402 86.276 260.111 86.276 258.44 87.181 257.389 88.99L257.389 89.085C257.656 89.038 257.899 89.014 258.119 89.014 258.934 89.014 259.578 89.266 260.048 89.769 260.519 90.273 260.754 90.997 260.754 91.94 260.754 92.758 260.472 93.447 259.907 94.005 259.342 94.564 258.636 94.843 257.789 94.843 256.863 94.843 256.134 94.529 255.6 93.902 255.067 93.274 254.8 92.537 254.8 91.689 254.8 89.838 255.651 88.293 257.354 87.053 259.056 85.814 261.013 85.194 263.226 85.194 264.794 85.194 266.132 85.359 267.238 85.688 268.344 86.018 269.227 86.453 269.886 86.994 270.545 87.536 271.059 88.273 271.427 89.207 271.796 90.14 272.039 91.093 272.157 92.066 272.275 93.039 272.333 94.231 272.333 95.643L272.333 108.328 274.758 108.564 274.758 109.529 267.274 109.529 266.615 105.81zM266.567 98.02C265.94 97.942 265.43 97.903 265.038 97.903 264.222 97.903 263.496 98.012 262.861 98.231 262.225 98.45 261.719 98.748 261.343 99.124 260.966 99.5 260.652 99.895 260.401 100.309 260.15 100.724 259.97 101.182 259.86 101.683 259.75 102.184 259.676 102.599 259.636 102.928 259.597 103.256 259.578 103.593 259.578 103.937 259.578 105.19 259.813 106.203 260.284 106.978 260.754 107.753 261.445 108.14 262.355 108.14 263.422 108.14 264.391 107.475 265.261 106.144 266.132 104.814 266.567 103.186 266.567 101.26L266.567 98.02zM243.385 113.577C242.836 115.177 242.271 116.51 241.69 117.578 241.11 118.644 240.525 119.425 239.937 119.919 239.349 120.413 238.803 120.747 238.301 120.919 237.799 121.092 237.242 121.178 236.631 121.178 235.454 121.178 234.501 120.849 233.771 120.19 233.041 119.531 232.677 118.699 232.677 117.695 232.677 116.769 232.955 115.993 233.512 115.365 234.069 114.738 234.771 114.424 235.618 114.424 236.528 114.424 237.215 114.706 237.678 115.271 238.14 115.836 238.372 116.534 238.372 117.366 238.372 117.679 238.274 118.056 238.078 118.495 237.881 118.934 237.627 119.264 237.313 119.484L237.313 119.578C237.862 119.562 238.38 119.37 238.866 119.001 239.352 118.633 239.792 118.103 240.184 117.413 240.576 116.722 240.874 116.142 241.079 115.671 241.282 115.201 241.518 114.612 241.785 113.906L242.844 110.329 232.841 87.124 230.511 86.865 230.511 85.9 241.643 85.9 241.643 86.865 239.102 87.124 245.221 102.468 249.833 87.124 247.245 86.865 247.245 85.9 253.646 85.9 253.646 86.865 251.198 87.124 243.385 113.577zM227.651 103.221C226.812 104.147 225.898 104.853 224.909 105.339 223.921 105.826 222.917 106.069 221.897 106.069 220.736 106.069 219.735 105.842 218.896 105.387 218.057 104.932 217.496 104.242 217.213 103.315 216.523 104.21 215.707 104.849 214.766 105.234 213.824 105.618 212.922 105.81 212.059 105.81 210.114 105.81 208.556 105.128 207.388 103.763 206.219 102.398 205.634 100.491 205.634 98.044 205.634 96.899 205.717 95.777 205.882 94.678 206.046 93.58 206.332 92.474 206.741 91.36 207.148 90.246 207.666 89.269 208.294 88.43 208.921 87.591 209.737 86.908 210.741 86.382 211.745 85.857 212.875 85.594 214.13 85.594 215.856 85.594 217.323 86.12 218.531 87.171L218.673 85.994 222.156 86.347C222.062 87.162 221.838 88.995 221.485 91.847 221.132 94.699 220.869 96.932 220.697 98.546 220.524 100.16 220.438 101.359 220.438 102.142 220.438 103.129 220.606 103.815 220.944 104.199 221.281 104.583 221.795 104.775 222.485 104.775 224.133 104.775 225.607 103.768 226.91 101.753 228.212 99.739 228.863 97.36 228.863 94.617 228.863 91.749 228.298 89.214 227.169 87.011 226.039 84.809 224.383 83.077 222.203 81.815 220.022 80.553 217.457 79.922 214.507 79.922 212.357 79.922 210.341 80.377 208.459 81.287 206.576 82.197 204.999 83.405 203.728 84.911 202.457 86.418 201.457 88.159 200.727 90.136 199.998 92.113 199.633 94.161 199.633 96.279 199.633 98.052 199.817 99.738 200.186 101.339 200.555 102.939 201.143 104.442 201.951 105.846 202.759 107.25 203.748 108.466 204.917 109.493 206.085 110.521 207.517 111.333 209.212 111.929 210.906 112.525 212.781 112.824 214.836 112.824 219.716 112.824 223.623 111.207 226.557 107.975L227.427 108.776C224.117 112.337 219.943 114.118 214.907 114.118 212.255 114.118 209.859 113.683 207.717 112.812 205.576 111.941 203.81 110.725 202.422 109.164 201.033 107.603 199.966 105.763 199.221 103.645 198.476 101.527 198.103 99.205 198.103 96.679 198.103 94.184 198.495 91.839 199.28 89.642 200.064 87.445 201.175 85.531 202.61 83.899 204.046 82.268 205.85 80.977 208.023 80.028 210.196 79.079 212.593 78.604 215.213 78.604 218.131 78.604 220.755 79.283 223.085 80.64 225.415 81.997 227.227 83.864 228.522 86.241 229.816 88.618 230.463 91.282 230.463 94.231 230.463 96.177 230.205 97.93 229.687 99.491 229.169 101.053 228.49 102.296 227.651 103.221zM214.601 86.935C213.628 86.935 212.781 87.265 212.059 87.924 211.337 88.583 210.78 89.469 210.388 90.583 209.996 91.698 209.706 92.898 209.518 94.184 209.329 95.471 209.235 96.844 209.235 98.303 209.235 100.029 209.58 101.417 210.271 102.468 210.961 103.52 211.942 104.045 213.213 104.045 214.562 104.045 215.833 103.339 217.025 101.927 217.025 101.503 217.052 100.943 217.108 100.244 217.162 99.546 217.37 97.581 217.731 94.349 218.092 91.117 218.304 89.195 218.367 88.583 217.409 87.485 216.154 86.935 214.601 86.935z"/>
  </g>
</svg>
